<?xml version="1.0" encoding="UTF-8" standalone="no"?>
<svg
   xmlns:dc="http://purl.org/dc/elements/1.1/"
   xmlns:cc="http://creativecommons.org/ns#"
   xmlns:rdf="http://www.w3.org/1999/02/22-rdf-syntax-ns#"
   xmlns:svg="http://www.w3.org/2000/svg"
   xmlns="http://www.w3.org/2000/svg"
   xmlns:sodipodi="http://sodipodi.sourceforge.net/DTD/sodipodi-0.dtd"
   xmlns:inkscape="http://www.inkscape.org/namespaces/inkscape"
   width="297mm"
   height="140mm"
   viewBox="0 0 297 140"
   version="1.1"
   id="svg8"
   inkscape:version="1.0.2 (e86c8708, 2021-01-15)"
   sodipodi:docname="logo.svg">
  <defs
     id="defs2">
    <rect
       x="322.79167"
       y="111.125"
       width="349.25"
       height="132.29167"
       id="rect73" />
    <rect
       x="137.58333"
       y="68.791667"
       width="142.875"
       height="52.916667"
       id="rect47" />
    <rect
       x="144.28405"
       y="123.95828"
       width="73.129197"
       height="24.645139"
       id="rect41" />
    <rect
       x="52.916668"
       y="116.41667"
       width="57.513393"
       height="25.385313"
       id="rect40" />
    <rect
       x="105.83333"
       y="116.41667"
       width="23.8125"
       height="87.3125"
       id="rect34" />
    <rect
       x="142.875"
       y="124.35417"
       width="85.320992"
       height="30.316324"
       id="rect28" />
  </defs>
  <sodipodi:namedview
     id="base"
     pagecolor="#ffffff"
     bordercolor="#666666"
     borderopacity="1.0"
     inkscape:pageopacity="0.0"
     inkscape:pageshadow="2"
     inkscape:zoom="0.54164943"
     inkscape:cx="567.97463"
     inkscape:cy="461.44962"
     inkscape:document-units="mm"
     inkscape:current-layer="layer1"
     inkscape:document-rotation="0"
     showgrid="true"
     inkscape:window-width="1252"
     inkscape:window-height="912"
     inkscape:window-x="0"
     inkscape:window-y="25"
     inkscape:window-maximized="0"
     height="209mm">
    <inkscape:grid
       type="xygrid"
       id="grid10" />
  </sodipodi:namedview>
  <metadata
     id="metadata5">
    <rdf:RDF>
      <cc:Work
         rdf:about="">
        <dc:format>image/svg+xml</dc:format>
        <dc:type
           rdf:resource="http://purl.org/dc/dcmitype/StillImage" />
        <dc:title></dc:title>
      </cc:Work>
    </rdf:RDF>
  </metadata>
  <g
     inkscape:label="Layer 1"
     inkscape:groupmode="layer"
     id="layer1">
    <path
       id="path20"
       style="fill:#ffccaa;fill-rule:evenodd;stroke-width:0.434201"
       d="M 67.039272,3.9633555 A 64.093092,63.977839 84.750625 0 1 129.3587,69.696231 64.093092,63.977839 84.750625 0 1 63.762489,132.10449 64.093092,63.977839 84.750625 0 1 1.443057,66.371621 64.093092,63.977839 84.750625 0 1 67.039272,3.9633555 Z" />
    <g
       aria-label="I Am"
       transform="matrix(4.7522497,0.05638207,-0.07363709,4.2348471,-543.37042,-535.62141)"
       id="text39"
       style="font-style:normal;font-variant:normal;font-weight:normal;font-stretch:normal;font-size:14.0107px;line-height:1.25;font-family:'Bungee Inline';-inkscape-font-specification:'Bungee Inline';white-space:pre;shape-inside:url(#rect41);fill:#000000;fill-opacity:1;stroke:none">
      <path
         d="m 145.53016,137.75952 q -0.26621,0 -0.3923,-0.11208 -0.11209,-0.1261 -0.11209,-0.3923 v -1.66727 q 0,-0.26621 0.11209,-0.37829 0.12609,-0.1261 0.3923,-0.1261 h 1.38705 v -4.70759 h -1.38705 q -0.26621,0 -0.3923,-0.11209 -0.11209,-0.1261 -0.11209,-0.3923 v -1.69529 q 0,-0.26621 0.11209,-0.37829 0.12609,-0.1261 0.3923,-0.1261 h 5.96855 q 0.26621,0 0.37829,0.1261 0.1261,0.11208 0.1261,0.37829 v 1.69529 q 0,0.2662 -0.1261,0.3923 -0.11208,0.11209 -0.37829,0.11209 h -1.35903 v 4.70759 h 1.35903 q 0.26621,0 0.37829,0.1261 0.1261,0.11208 0.1261,0.37829 v 1.66727 q 0,0.2662 -0.1261,0.3923 -0.11208,0.11208 -0.37829,0.11208 z m 5.21198,-1.26096 v -0.14011 h -2.14364 v -7.28556 h 2.14364 v -0.14011 h -4.45541 v 0.14011 h 2.17166 v 7.28556 h -2.17166 v 0.14011 z"
         style="font-style:normal;font-variant:normal;font-weight:normal;font-stretch:normal;font-size:14.0107px;font-family:'Bungee Inline';-inkscape-font-specification:'Bungee Inline'"
         id="path91" />
      <path
         d="m 158.2129,133.51428 q 0,-0.37829 0.056,-0.70053 0.0701,-0.32225 0.16813,-0.60246 l 0.89668,-2.29776 q 0.14011,-0.35027 0.30824,-0.58845 0.16812,-0.25219 0.58845,-0.25219 h 1.37304 q 0.3923,0 0.56043,0.25219 0.16813,0.23818 0.32225,0.60246 l 0.96674,2.28375 q 0.0981,0.28021 0.15411,0.60246 0.0701,0.32224 0.0701,0.70053 v 0.43433 h -5.46418 z m 2.24172,-2.90021 -0.65851,2.12962 h 2.19968 l -0.6585,-2.12962 q -0.056,-0.1261 -0.1261,-0.18214 -0.056,-0.056 -0.1401,-0.056 h -0.35027 q -0.0841,0 -0.15412,0.056 -0.056,0.056 -0.11208,0.18214 z m 3.22246,5.88449 h 0.1401 v -2.98428 q 0,-0.3923 -0.0701,-0.71454 -0.056,-0.33626 -0.16813,-0.6445 l -0.96674,-2.28374 q -0.16812,-0.40631 -0.36427,-0.67251 -0.18214,-0.26621 -0.6445,-0.26621 h -1.37304 q -0.47637,0 -0.67252,0.26621 -0.19615,0.2662 -0.35027,0.6585 l -0.89668,2.29775 q -0.11209,0.30824 -0.18214,0.6445 -0.056,0.32224 -0.056,0.71454 v 2.98428 h 0.1401 v -2.40984 h 5.46418 z m -4.02107,0.75658 q 0,0.2662 -0.1261,0.3923 -0.11209,0.11208 -0.37829,0.11208 h -2.05957 q -0.26621,0 -0.3923,-0.11208 -0.11209,-0.1261 -0.11209,-0.3923 v -3.69883 q 0,-0.42032 0.1261,-0.96673 0.14011,-0.54642 0.42032,-1.27498 l 1.21893,-3.18043 q 0.0841,-0.23818 0.25219,-0.35026 0.18214,-0.11209 0.46236,-0.11209 h 3.76888 q 0.2662,0 0.43433,0.11209 0.18214,0.11208 0.2662,0.35026 l 1.21893,3.18043 q 0.28022,0.72856 0.40631,1.27498 0.14011,0.54641 0.14011,0.96673 v 3.69883 q 0,0.2662 -0.1261,0.3923 -0.11208,0.11208 -0.37829,0.11208 h -2.11561 q -0.28022,0 -0.42032,-0.11208 -0.1261,-0.1261 -0.1261,-0.3923 v -1.9615 h -2.47989 z"
         style="font-style:normal;font-variant:normal;font-weight:normal;font-stretch:normal;font-size:14.0107px;font-family:'Bungee Inline';-inkscape-font-specification:'Bungee Inline'"
         id="path93" />
      <path
         d="m 171.96397,132.3654 q -0.25219,0 -0.36428,-0.11208 -0.11208,-0.11209 -0.35027,-0.47636 l -1.7093,-2.606 q -0.0841,-0.1401 -0.19615,-0.18213 -0.11209,-0.056 -0.22417,-0.056 h -0.23819 q -0.18213,0 -0.28021,0.11209 -0.0841,0.0981 -0.0841,0.32224 v 7.13145 h 0.1401 v -7.13145 q 0,-0.11208 0.042,-0.19615 0.042,-0.0981 0.18213,-0.0981 h 0.21017 q 0.0981,0 0.16812,0.028 0.0841,0.028 0.16813,0.16813 l 1.70931,2.57797 q 0.25219,0.37829 0.37829,0.51839 0.1401,0.14011 0.44834,0.14011 0.30823,0 0.43433,-0.14011 0.14011,-0.1401 0.3923,-0.51839 l 1.70931,-2.57797 q 0.0841,-0.14011 0.15411,-0.16813 0.0701,-0.028 0.16813,-0.028 h 0.21016 q 0.14011,0 0.18214,0.0981 0.056,0.0841 0.056,0.19615 v 7.13145 h 0.14011 v -7.13145 q 0,-0.22417 -0.0981,-0.32224 -0.0841,-0.11209 -0.28022,-0.11209 h -0.23818 q -0.11209,0 -0.22417,0.056 -0.0981,0.042 -0.18214,0.18213 l -1.70931,2.606 q -0.23818,0.36427 -0.35026,0.47636 -0.11209,0.11208 -0.36428,0.11208 z m -2.33979,5.39412 h -2.08759 q -0.26621,0 -0.3923,-0.11208 -0.11209,-0.1261 -0.11209,-0.3923 v -9.07893 q 0,-0.26621 0.11209,-0.37829 0.12609,-0.1261 0.3923,-0.1261 h 2.25572 q 0.22417,0 0.36428,0.0981 0.15412,0.0981 0.28021,0.32225 l 1.26097,2.28375 q 0.0701,0.12609 0.11208,0.18213 0.056,0.056 0.14011,0.056 h 0.12609 q 0.0841,0 0.1261,-0.056 0.056,-0.056 0.1261,-0.18213 l 1.24695,-2.28375 q 0.1261,-0.22417 0.2662,-0.32225 0.15412,-0.0981 0.37829,-0.0981 h 2.26973 q 0.26621,0 0.37829,0.1261 0.1261,0.11208 0.1261,0.37829 v 9.07893 q 0,0.2662 -0.1261,0.3923 -0.11208,0.11208 -0.37829,0.11208 h -2.15764 q -0.26621,0 -0.3923,-0.11208 -0.11209,-0.1261 -0.11209,-0.3923 v -4.93177 l -0.82663,1.52717 q -0.1261,0.23818 -0.30823,0.35027 -0.16813,0.0981 -0.43434,0.0981 h -0.56042 q -0.26621,0 -0.44835,-0.0981 -0.16813,-0.11209 -0.29422,-0.35027 l -0.82663,-1.52717 v 4.93177 q 0,0.2662 -0.1261,0.3923 -0.11208,0.11208 -0.37829,0.11208 z"
         style="font-style:normal;font-variant:normal;font-weight:normal;font-stretch:normal;font-size:14.0107px;font-family:'Bungee Inline';-inkscape-font-specification:'Bungee Inline'"
         id="path95" />
    </g>
    <path
       id="path44"
       style="fill:#ffffff;stroke-width:0.434201"
       d="M 45.352426,26.066915 A 11.030933,17.091071 1.4477006 0 1 55.942731,43.439001 11.030933,17.091071 1.4477006 0 1 44.478617,60.237881 11.030933,17.091071 1.4477006 0 1 33.888312,42.865791 11.030933,17.091071 1.4477006 0 1 45.352426,26.066915 Z" />
    <path
       id="path44-1"
       style="fill:#ffffff;stroke-width:0.434201"
       d="M 89.303303,28.097637 A 11.030933,17.091071 1.4477006 0 1 99.893614,45.469741 11.030933,17.091071 1.4477006 0 1 88.429494,62.268611 11.030933,17.091071 1.4477006 0 1 77.83919,44.896531 11.030933,17.091071 1.4477006 0 1 89.303303,28.097637 Z" />
    <path
       id="path66"
       style="fill:#000000;stroke-width:0.434201"
       d="m 49.64668,36.769321 a 4.4123734,6.4091521 1.4432142 0 1 4.247047,6.52168 4.4123734,6.4091521 1.4432142 0 1 -4.574725,6.29242 4.4123734,6.4091521 1.4432142 0 1 -4.247044,-6.5217 4.4123734,6.4091521 1.4432142 0 1 4.574722,-6.2924 z" />
    <path
       id="path66-6"
       style="fill:#000000;stroke-width:0.434201"
       d="m 93.321774,38.705431 a 4.4123734,6.4091521 1.4432142 0 1 4.247043,6.52168 4.4123734,6.4091521 1.4432142 0 1 -4.574722,6.29242 4.4123734,6.4091521 1.4432142 0 1 -4.247044,-6.52169 4.4123734,6.4091521 1.4432142 0 1 4.574723,-6.29241 z" />
    <path
       id="path92"
       style="fill:none;fill-rule:evenodd;stroke:#000000;stroke-width:0.434201"
       d="M 21.745427,105.37768 C 28.778669,82.997871 54.257276,70.771041 77.12133,77.624331 c 15.106967,4.52815 26.93267,16.60944 31.09899,31.344799" />
    <g
       aria-label="Bored"
       transform="matrix(1.3138122,0,0,2.2867542,-50.281978,-115.87185)"
       id="text45"
       style="font-style:normal;font-weight:normal;font-size:34.925px;line-height:1.25;font-family:sans-serif;white-space:pre;shape-inside:url(#rect47);fill:#000000;fill-opacity:1;stroke:none">
      <path
         d="m 154.66231,103.19214 h -13.4112 q -0.66358,0 -0.9779,-0.2794 -0.2794,-0.31433 -0.2794,-0.9779 v -22.6314 q 0,-0.663575 0.2794,-0.942975 0.31432,-0.314325 0.9779,-0.314325 h 11.14107 q 3.42265,0 5.06413,1.32715 1.64147,1.292225 1.64147,4.016375 v 1.6764 q 0,1.46685 -0.52387,2.409825 -0.48895,0.90805 -1.5367,1.362075 2.2352,0.20955 3.31787,1.5367 1.08268,1.32715 1.08268,3.876675 v 3.2131 q 0,2.9337 -1.6764,4.3307 -1.64148,1.397 -5.09905,1.397 z m -10.79183,-3.14325 h 9.39483 q 1.46685,0 2.3749,-0.244475 0.90805,-0.2794 1.36207,-0.733425 0.48895,-0.454025 0.66358,-1.082675 0.17462,-0.663575 0.17462,-1.431925 v -2.2352 q 0,-0.873125 -0.17462,-1.60655 -0.1397,-0.733425 -0.62865,-1.2573 -0.48895,-0.5588 -1.397,-0.8382 -0.90805,-0.314325 -2.33998,-0.314325 1.50178,-0.384175 1.85103,-1.2573 0.38417,-0.873125 0.38417,-1.920875 v -2.2352 q 0,-0.76835 -0.17462,-1.431925 -0.17463,-0.663575 -0.66358,-1.152525 -0.48895,-0.523875 -1.397,-0.803275 -0.90805,-0.314325 -2.33997,-0.314325 h -7.08978 z m 7.08978,-18.51025 q 2.61937,0 3.42265,0.9779 0.80327,0.9779 0.80327,2.3749 v 2.2352 q 0,0.62865 -0.1397,1.222375 -0.10477,0.5588 -0.5588,1.012825 -0.4191,0.4191 -1.2573,0.6985 -0.8382,0.244475 -2.27012,0.244475 h -6.74053 V 81.53864 Z m -3.10833,2.44475 v 3.7719 h 2.96863 q 0.66357,0 0.9779,-0.34925 0.34925,-0.34925 0.34925,-1.04775 v -0.9779 q 0,-0.6985 -0.34925,-1.04775 -0.31433,-0.34925 -0.9779,-0.34925 z m 5.4483,6.670675 q 2.61938,0 3.38773,1.04775 0.80327,1.04775 0.80327,2.619375 v 2.2352 q 0,1.431925 -0.80327,2.30505 -0.80328,0.8382 -3.42265,0.8382 h -9.04558 v -9.045575 z m -5.4483,2.479675 v 4.12115 h 4.54025 q 0.66358,0 0.9779,-0.34925 0.34925,-0.34925 0.34925,-1.04775 v -1.362075 q 0,-0.6985 -0.34925,-1.012825 -0.31432,-0.34925 -0.9779,-0.34925 z"
         style="font-style:normal;font-variant:normal;font-weight:bold;font-stretch:normal;font-size:34.925px;font-family:'Bungee Inline';-inkscape-font-specification:'Bungee Inline Bold'"
         id="path80" />
      <path
         d="m 186.60504,96.591315 q 0,1.60655 -0.48895,2.9337 -0.45402,1.292225 -1.6764,2.235195 -1.18745,0.90805 -3.31787,1.43193 -2.0955,0.52387 -5.34353,0.52387 -3.24802,0 -5.37845,-0.52387 -2.13042,-0.52388 -3.3528,-1.43193 -1.18745,-0.94297 -1.6764,-2.235195 -0.45402,-1.32715 -0.45402,-2.9337 V 84.68189 q 0,-1.60655 0.45402,-2.898775 0.48895,-1.32715 1.6764,-2.270125 1.22238,-0.942975 3.3528,-1.46685 2.13043,-0.523875 5.37845,-0.523875 3.24803,0 5.34353,0.523875 2.13042,0.523875 3.31787,1.46685 1.22238,0.942975 1.6764,2.270125 0.48895,1.292225 0.48895,2.898775 z M 182.79822,95.78804 V 85.485165 q 0,-2.0955 -1.50178,-3.387725 -1.50177,-1.32715 -5.588,-1.32715 -4.08622,0 -5.55307,1.32715 -1.46685,1.292225 -1.46685,3.387725 V 95.78804 q 0,2.0955 1.46685,3.42265 1.46685,1.29222 5.55307,1.29222 4.08623,0 5.588,-1.29222 1.50178,-1.32715 1.50178,-3.42265 z m -13.76045,0 V 85.485165 q 0,-1.9558 1.397,-3.14325 1.397,-1.222375 5.27367,-1.222375 3.87668,0 5.3086,1.222375 1.43193,1.18745 1.43193,3.14325 V 95.78804 q 0,1.9558 -1.43193,3.178175 -1.43192,1.187445 -5.3086,1.187445 -3.87667,0 -5.27367,-1.187445 -1.397,-1.222375 -1.397,-3.178175 z m 3.80682,-0.454025 q 0,0.6985 0.52388,1.18745 0.52387,0.454025 2.40982,0.454025 1.88595,0 2.40983,-0.454025 0.52387,-0.48895 0.52387,-1.18745 V 85.93919 q 0,-0.663575 -0.52387,-1.1176 -0.52388,-0.48895 -2.40983,-0.48895 -1.88595,0 -2.40982,0.48895 -0.52388,0.454025 -0.52388,1.1176 z"
         style="font-style:normal;font-variant:normal;font-weight:bold;font-stretch:normal;font-size:34.925px;font-family:'Bungee Inline';-inkscape-font-specification:'Bungee Inline Bold'"
         id="path82" />
      <path
         d="m 202.75185,81.53864 q 1.85102,0 2.72415,1.012825 0.90805,1.012825 0.90805,2.619375 v 2.44475 q 0,1.920875 -0.73343,2.968625 -0.73342,1.04775 -2.89877,1.04775 H 195.1382 V 81.53864 Z m -3.84175,2.794 v 4.4704 h 2.61937 q 0.90805,0 1.22238,-0.454025 0.31432,-0.48895 0.31432,-1.18745 v -1.18745 q 0,-0.6985 -0.31432,-1.152525 -0.31433,-0.48895 -1.22238,-0.48895 z m -3.7719,15.71625 v -8.1026 h 9.88377 q 1.99073,0 2.9337,0.873125 0.94298,0.8382 0.94298,2.549525 v 4.67995 h 0.34925 v -4.67995 q 0,-1.8161 -1.04775,-2.759075 -1.04775,-0.9779 -3.17818,-0.9779 h -0.38417 q 1.2573,-0.384175 1.6764,-1.397 0.4191,-1.04775 0.4191,-2.6543 V 85.17084 q 0,-1.711325 -0.9779,-2.828925 -0.9779,-1.152525 -3.00355,-1.152525 h -7.9629 v 18.8595 z m 2.5146,3.14325 h -5.37845 q -0.66358,0 -0.9779,-0.2794 -0.2794,-0.31433 -0.2794,-0.9779 v -22.6314 q 0,-0.663575 0.2794,-0.942975 0.31432,-0.314325 0.9779,-0.314325 h 11.63002 q 3.9116,0 5.37845,1.641475 1.50178,1.60655 1.50178,4.191 v 1.60655 q 0,1.46685 -0.45403,2.5146 -0.4191,1.012825 -1.50177,1.46685 1.88595,0.20955 3.03847,1.5367 1.18745,1.32715 1.18745,3.527425 v 7.4041 q 0,0.66357 -0.31432,0.9779 -0.2794,0.2794 -0.94298,0.2794 h -5.41337 q -0.66358,0 -0.9779,-0.2794 -0.2794,-0.31433 -0.2794,-0.9779 v -5.343525 q 0,-0.76835 -0.31433,-1.1176 -0.2794,-0.384175 -1.01282,-0.384175 h -4.8895 v 6.8453 q 0,0.66357 -0.31433,0.9779 -0.2794,0.2794 -0.94297,0.2794 z"
         style="font-style:normal;font-variant:normal;font-weight:bold;font-stretch:normal;font-size:34.925px;font-family:'Bungee Inline';-inkscape-font-specification:'Bungee Inline Bold'"
         id="path84" />
      <path
         d="m 234.40045,103.19214 h -16.2052 q -0.66358,0 -0.9779,-0.2794 -0.2794,-0.31433 -0.2794,-0.9779 v -22.6314 q 0,-0.663575 0.2794,-0.942975 0.31432,-0.314325 0.9779,-0.314325 h 16.2052 q 0.66357,0 0.94297,0.314325 0.31433,0.2794 0.31433,0.942975 v 4.086225 q 0,0.663575 -0.31433,0.9779 -0.2794,0.2794 -0.94297,0.2794 h -9.6393 v 2.689225 h 6.81037 q 0.66358,0 0.94298,0.314325 0.31432,0.2794 0.31432,0.942975 v 3.736975 q 0,0.663575 -0.31432,0.9779 -0.2794,0.2794 -0.94298,0.2794 h -6.81037 v 3.00355 h 9.6393 q 0.66357,0 0.94297,0.314325 0.31433,0.2794 0.31433,0.942975 v 4.086225 q 0,0.66357 -0.31433,0.9779 -0.2794,0.2794 -0.94297,0.2794 z m -1.88595,-3.4925 h -11.42048 v -9.045575 h 8.59155 v -0.34925 h -8.59155 V 81.53864 h 11.42048 v -0.34925 h -11.76973 v 18.8595 h 11.76973 z"
         style="font-style:normal;font-variant:normal;font-weight:bold;font-stretch:normal;font-size:34.925px;font-family:'Bungee Inline';-inkscape-font-specification:'Bungee Inline Bold'"
         id="path86" />
      <path
         d="m 252.81629,103.19214 h -11.76972 q -0.66358,0 -0.9779,-0.2794 -0.2794,-0.31433 -0.2794,-0.9779 v -22.6314 q 0,-0.663575 0.2794,-0.942975 0.31432,-0.314325 0.9779,-0.314325 h 11.76972 q 4.36562,0 6.46112,1.74625 2.13043,1.74625 2.13043,5.37845 v 10.8966 q 0,3.6322 -2.13043,5.37845 -2.0955,1.74625 -6.46112,1.74625 z m -9.2202,-3.14325 h 8.45185 q 1.78117,0 2.89877,-0.34925 1.1176,-0.384175 1.71133,-1.012825 0.59372,-0.62865 0.76835,-1.501775 0.20955,-0.873125 0.20955,-1.88595 v -9.255125 q 0,-1.012825 -0.20955,-1.88595 -0.20955,-0.90805 -0.80328,-1.5367 -0.59372,-0.663575 -1.71132,-1.04775 -1.08268,-0.384175 -2.86385,-0.384175 h -8.45185 z m 8.45185,-18.51025 q 1.64147,0 2.6543,0.34925 1.04775,0.34925 1.60655,0.942975 0.5588,0.593725 0.76835,1.431925 0.20955,0.8382 0.20955,1.781175 v 9.255125 q 0,0.942975 -0.20955,1.781175 -0.17463,0.803275 -0.73343,1.397 -0.5588,0.5588 -1.60655,0.90805 -1.01282,0.314325 -2.68922,0.314325 h -8.1026 v -18.161 z m -4.3307,3.178175 v 11.8745 h 4.15607 q 0.8382,0 1.22238,-0.4191 0.4191,-0.4191 0.4191,-1.292225 v -8.486775 q 0,-0.873125 -0.4191,-1.2573 -0.38418,-0.4191 -1.22238,-0.4191 z"
         style="font-style:normal;font-variant:normal;font-weight:bold;font-stretch:normal;font-size:34.925px;font-family:'Bungee Inline';-inkscape-font-specification:'Bungee Inline Bold'"
         id="path88" />
    </g>
    <g
       id="text71"
       style="font-style:normal;font-weight:normal;font-size:10.5833px;line-height:1.25;font-family:sans-serif;white-space:pre;shape-inside:url(#rect73);fill:#000000;fill-opacity:1;stroke:none" />
  </g>
</svg>
