<?xml version="1.0" encoding="UTF-8" standalone="no"?>
<svg
   xmlns:dc="http://purl.org/dc/elements/1.1/"
   xmlns:cc="http://creativecommons.org/ns#"
   xmlns:rdf="http://www.w3.org/1999/02/22-rdf-syntax-ns#"
   xmlns:svg="http://www.w3.org/2000/svg"
   xmlns="http://www.w3.org/2000/svg"
   xmlns:sodipodi="http://sodipodi.sourceforge.net/DTD/sodipodi-0.dtd"
   xmlns:inkscape="http://www.inkscape.org/namespaces/inkscape"
   width="135mm"
   height="140mm"
   viewBox="0 0 135 140"
   version="1.1"
   id="svg8"
   inkscape:version="1.0.2 (e86c8708, 2021-01-15)"
   sodipodi:docname="favicon.svg">
  <defs
     id="defs2">
    <rect
       x="322.79166"
       y="111.125"
       width="349.25"
       height="132.29167"
       id="rect73" />
    <rect
       x="137.58333"
       y="68.791664"
       width="142.875"
       height="52.916668"
       id="rect47" />
    <rect
       x="144.28406"
       y="123.95828"
       width="73.129196"
       height="24.64514"
       id="rect41" />
    <rect
       x="52.916668"
       y="116.41667"
       width="57.513393"
       height="25.385313"
       id="rect40" />
    <rect
       x="105.83333"
       y="116.41667"
       width="23.8125"
       height="87.3125"
       id="rect34" />
    <rect
       x="142.875"
       y="124.35417"
       width="85.320992"
       height="30.316324"
       id="rect28" />
  </defs>
  <sodipodi:namedview
     id="base"
     pagecolor="#ffffff"
     bordercolor="#666666"
     borderopacity="1.0"
     inkscape:pageopacity="0.0"
     inkscape:pageshadow="2"
     inkscape:zoom="0.54164943"
     inkscape:cx="567.97463"
     inkscape:cy="461.44962"
     inkscape:document-units="mm"
     inkscape:current-layer="layer1"
     inkscape:document-rotation="0"
     showgrid="true"
     inkscape:window-width="1252"
     inkscape:window-height="912"
     inkscape:window-x="0"
     inkscape:window-y="25"
     inkscape:window-maximized="0"
     height="209mm">
    <inkscape:grid
       type="xygrid"
       id="grid10" />
  </sodipodi:namedview>
  <metadata
     id="metadata5">
    <rdf:RDF>
      <cc:Work
         rdf:about="">
        <dc:format>image/svg+xml</dc:format>
        <dc:type
           rdf:resource="http://purl.org/dc/dcmitype/StillImage" />
        <dc:title></dc:title>
      </cc:Work>
    </rdf:RDF>
  </metadata>
  <g
     inkscape:label="Layer 1"
     inkscape:groupmode="layer"
     id="layer1">
    <path
       id="path20"
       style="fill:#ffccaa;fill-rule:evenodd;stroke-width:0.434201"
       d="M 67.039272,3.9633555 A 64.093092,63.977839 84.750625 0 1 129.3587,69.696231 64.093092,63.977839 84.750625 0 1 63.762489,132.10449 64.093092,63.977839 84.750625 0 1 1.443057,66.371621 64.093092,63.977839 84.750625 0 1 67.039272,3.9633555 Z" />
    <path
       id="path44"
       style="fill:#ffffff;stroke-width:0.434201"
       d="M 45.352426,26.066915 A 11.030933,17.091071 1.4477006 0 1 55.942731,43.439001 11.030933,17.091071 1.4477006 0 1 44.478617,60.237881 11.030933,17.091071 1.4477006 0 1 33.888312,42.865791 11.030933,17.091071 1.4477006 0 1 45.352426,26.066915 Z" />
    <path
       id="path44-1"
       style="fill:#ffffff;stroke-width:0.434201"
       d="M 89.303303,28.097637 A 11.030933,17.091071 1.4477006 0 1 99.893614,45.469741 11.030933,17.091071 1.4477006 0 1 88.429494,62.268611 11.030933,17.091071 1.4477006 0 1 77.83919,44.896531 11.030933,17.091071 1.4477006 0 1 89.303303,28.097637 Z" />
    <path
       id="path66"
       style="fill:#000000;stroke-width:0.434201"
       d="m 49.64668,36.769321 a 4.4123734,6.4091521 1.4432142 0 1 4.247047,6.52168 4.4123734,6.4091521 1.4432142 0 1 -4.574725,6.29242 4.4123734,6.4091521 1.4432142 0 1 -4.247044,-6.5217 4.4123734,6.4091521 1.4432142 0 1 4.574722,-6.2924 z" />
    <path
       id="path66-6"
       style="fill:#000000;stroke-width:0.434201"
       d="m 93.321774,38.705431 a 4.4123734,6.4091521 1.4432142 0 1 4.247043,6.52168 4.4123734,6.4091521 1.4432142 0 1 -4.574722,6.29242 4.4123734,6.4091521 1.4432142 0 1 -4.247044,-6.52169 4.4123734,6.4091521 1.4432142 0 1 4.574723,-6.29241 z" />
    <path
       id="path92"
       style="fill:none;fill-rule:evenodd;stroke:#000000;stroke-width:0.434201"
       d="M 21.745427,105.37768 C 28.778669,82.997871 54.257276,70.771041 77.12133,77.624331 c 15.106967,4.52815 26.93267,16.60944 31.09899,31.344799" />
    <g
       id="text71"
       style="font-style:normal;font-weight:normal;font-size:10.5833px;line-height:1.25;font-family:sans-serif;white-space:pre;shape-inside:url(#rect73);fill:#000000;fill-opacity:1;stroke:none" />
  </g>
</svg>
